<?xml version="1.0" standalone="no"?>
<!DOCTYPE svg PUBLIC "-//W3C//DTD SVG 20010904//EN"
 "http://www.w3.org/TR/2001/REC-SVG-20010904/DTD/svg10.dtd">
<svg version="1.0" xmlns="http://www.w3.org/2000/svg"
 width="283.000000pt" height="283.000000pt" viewBox="0 0 283.000000 283.000000"
 preserveAspectRatio="xMidYMid meet">
<metadata>
Created by potrace 1.14, written by Peter Selinger 2001-2017
</metadata>
<g transform="translate(0.000000,283.000000) scale(0.100000,-0.100000)"
fill="#000000" stroke="none">
<path d="M1269 2755 c-2 -1 -28 -6 -57 -10 -29 -3 -83 -15 -120 -26 -37 -11
-74 -21 -83 -23 -10 -3 -53 -23 -98 -45 -328 -164 -488 -475 -436 -850 22
-160 107 -290 254 -390 118 -81 250 -134 562 -227 322 -96 418 -143 458 -227
58 -119 -11 -228 -159 -256 -46 -8 -232 -8 -295 1 -176 24 -451 129 -602 230
-40 26 -75 48 -78 48 -9 0 -256 -501 -250 -510 6 -10 120 -75 195 -110 122
-58 346 -134 460 -156 8 -2 31 -6 50 -10 142 -27 221 -33 395 -30 166 3 207 7
275 22 14 3 38 8 54 11 57 9 184 60 261 104 90 51 194 151 244 233 37 61 78
168 87 223 3 20 8 45 10 57 6 33 6 196 -1 246 -23 167 -97 301 -222 405 -125
103 -317 180 -713 286 -296 80 -392 151 -386 285 6 125 104 193 285 198 122 4
295 -31 411 -81 110 -48 206 -96 244 -123 49 -33 63 -37 68 -17 2 6 56 112
121 233 64 122 117 226 117 232 0 26 -387 196 -516 227 -164 39 -221 47 -370
50 -89 2 -163 2 -165 0z"/>
</g>
</svg>
